<svg xmlns="http://www.w3.org/2000/svg">
    <!--plus-icon-->
    <symbol id="plus-icon" viewBox="0 0 45.402 45.402">
        <g>
            <path d="M41.267,18.557H26.832V4.134C26.832,1.851,24.99,0,22.707,0c-2.283,0-4.124,1.851-4.124,4.135v14.432H4.141
		c-2.283,0-4.139,1.851-4.138,4.135c-0.001,1.141,0.46,2.187,1.207,2.934c0.748,0.749,1.78,1.222,2.92,1.222h14.453V41.27
		c0,1.142,0.453,2.176,1.201,2.922c0.748,0.748,1.777,1.211,2.919,1.211c2.282,0,4.129-1.851,4.129-4.133V26.857h14.435
		c2.283,0,4.134-1.867,4.133-4.15C45.399,20.425,43.548,18.557,41.267,18.557z"/>
        </g>
    </symbol>

    <!--checkmark-icon-->
    <symbol id="checkmark-icon" viewBox="0 0 405.272 405.272">
        <g>
            <path d="M393.401,124.425L179.603,338.208c-15.832,15.835-41.514,15.835-57.361,0L11.878,227.836
		c-15.838-15.835-15.838-41.52,0-57.358c15.841-15.841,41.521-15.841,57.355-0.006l81.698,81.699L336.037,67.064
		c15.841-15.841,41.523-15.829,57.358,0C409.23,82.902,409.23,108.578,393.401,124.425z"/>
        </g>
    </symbol>
    <!--menu-item-icon-->
    <symbol id="menu-item-icon" viewBox="0 0 24 24">
        <path d="m21 0h-18c-1.654 0-3 1.346-3 3v3c0 1.654 1.346 3 3 3h18c1.654 0 3-1.346 3-3v-3c0-1.654-1.346-3-3-3zm1 6c0 .551-.449 1-1 1h-8v-5h8c.551 0 1 .449 1 1z"/><path d="m17.5 6c-.145 0-.29-.042-.416-.126l-2.25-1.5c-.345-.23-.438-.695-.208-1.04s.695-.438 1.04-.208l1.834 1.223 1.834-1.223c.344-.23.81-.137 1.04.208s.137.81-.208 1.04l-2.25 1.5c-.126.084-.271.126-.416.126z"/><path d="m21 24h-18c-1.654 0-3-1.346-3-3v-9c0-.552.448-1 1-1h22c.552 0 1 .448 1 1v9c0 1.654-1.346 3-3 3zm-19-11v8c0 .551.449 1 1 1h18c.551 0 1-.449 1-1v-8z"/><path d="m18 19c-.827 0-1.5-.673-1.5-1.5s.673-1.5 1.5-1.5 1.5.673 1.5 1.5-.673 1.5-1.5 1.5z"/>
    </symbol>

    <!--send-icon-->
    <symbol id="send-icon" viewBox="0 0 24 24">
        <path d="m20.27 19h-13.517c-.657 0-1.28-.287-1.708-.786-.429-.5-.616-1.16-.515-1.81l1.479-9.5c.174-1.104 1.108-1.904 2.224-1.904h13.517c.657 0 1.28.287 1.708.786.429.5.616 1.16.515 1.81l-1.479 9.5c-.174 1.104-1.108 1.904-2.224 1.904zm-12.037-12.5c-.372 0-.684.267-.741.635l-1.479 9.5c-.034.22.026.435.171.604.145.168.346.261.569.261h13.517c.372 0 .684-.267.741-.635l1.479-9.5c.034-.22-.026-.435-.171-.604-.145-.168-.346-.261-.569-.261z"/><path d="m14.324 13.476c-.482 0-.964-.128-1.396-.382l-6.782-3.998c-.357-.21-.476-.67-.266-1.027.211-.356.668-.477 1.027-.265l6.783 3.998c.367.216.812.23 1.193.041l7.848-3.924c.37-.185.82-.035 1.006.335.186.371.035.821-.336 1.006l-7.848 3.924c-.388.195-.809.292-1.229.292z"/><path d="m4.25 8.5h-3.5c-.414 0-.75-.336-.75-.75s.336-.75.75-.75h3.5c.414 0 .75.336.75.75s-.336.75-.75.75z"/><path d="m3.25 12.5h-2.5c-.414 0-.75-.336-.75-.75s.336-.75.75-.75h2.5c.414 0 .75.336.75.75s-.336.75-.75.75z"/><path d="m2.25 16.5h-1.5c-.414 0-.75-.336-.75-.75s.336-.75.75-.75h1.5c.414 0 .75.336.75.75s-.336.75-.75.75z"/>
    </symbol>
</svg>